<svg width="89" height="47" viewBox="0 0 89 47" fill="none" xmlns="http://www.w3.org/2000/svg">
<path d="M58.8354 24.1294C58.7652 24.3487 58.7126 24.5679 58.6161 24.7564C58.5486 24.9172 58.4544 25.0654 58.3377 25.1949C57.9189 25.6334 57.4848 26.0587 57.0573 26.4862C57.0324 26.5068 57.0052 26.5245 56.9762 26.5389C56.9083 26.0784 56.8644 25.6268 56.7701 25.1861C56.4675 23.8981 55.9872 22.6585 55.3429 21.5029C54.3796 19.6989 53.2469 17.9907 51.96 16.4012C51.8965 16.3201 51.8373 16.239 51.7715 16.1513L53.6876 13.7134C53.7288 13.7433 53.7676 13.7763 53.8038 13.812C55.153 15.4429 56.341 17.2006 57.3511 19.0606C57.8721 20.0071 58.2861 21.0086 58.5854 22.0466C58.6731 22.3777 58.7235 22.7175 58.8047 23.0551C58.8177 23.0975 58.8346 23.1386 58.8551 23.1779L58.8354 24.1294Z" fill="#EC622C"/>
<path d="M52.0602 0C52.2269 0.0526173 52.3957 0.0964651 52.5579 0.160044C52.9022 0.304598 53.1905 0.556833 53.3794 0.878959C53.5683 1.20109 53.6478 1.57576 53.6059 1.94684C52.2917 2.18878 51.0209 2.62471 49.835 3.24035C48.6386 3.84577 47.4862 4.53441 46.3863 5.30119L43.6875 3.49467C44.1852 3.16362 44.6587 2.83695 45.1454 2.52782C46.4655 1.65273 47.8899 0.946397 49.3855 0.425323C49.8876 0.263087 50.4137 0.175391 50.9202 0.0526173C50.9631 0.0383296 51.0049 0.0207379 51.0452 0L52.0602 0Z" fill="#EC622C"/>
<path d="M32.2944 24.4868C33.2158 24.4516 34.1253 24.2657 34.9866 23.9365C36.1157 23.527 37.2042 23.0132 38.2379 22.4019C40.4567 21.0739 42.5348 19.524 44.4402 17.7759C46.9968 15.4944 49.2824 12.9263 51.2519 10.1223C52.3658 8.57982 53.2841 6.90522 53.9859 5.1368C54.3668 4.20546 54.5891 3.21691 54.6436 2.21215C54.6497 2.17449 54.6577 2.13717 54.6677 2.10034C54.728 2.14147 54.7858 2.18613 54.8409 2.23408C55.1851 2.57609 55.5205 2.92687 55.8735 3.25792C56.0841 3.45743 56.2512 3.69828 56.3644 3.96538C56.4775 4.23247 56.5343 4.52007 56.5312 4.81013C56.5348 5.55681 56.4095 6.29849 56.1607 7.00252C55.5708 8.73276 54.7413 10.3718 53.6965 11.8718C52.0548 14.3096 50.1627 16.5691 48.0511 18.6134C46.2058 20.4372 44.1939 22.0843 42.0417 23.5331C40.5411 24.5764 38.9022 25.4051 37.1724 25.9952C36.4947 26.2317 35.7833 26.3575 35.0655 26.3679C34.7526 26.3785 34.4409 26.322 34.1516 26.2022C33.8623 26.0823 33.6021 25.9018 33.3884 25.6729C33.0288 25.2827 32.6408 24.9209 32.2637 24.5482L32.2944 24.4868Z" fill="#EC622C"/>
<path d="M50.183 9.90749C49.5516 10.7253 48.9311 11.5255 48.2953 12.3454C48.1748 12.2314 48.0761 12.1459 47.9884 12.056C46.3169 10.4163 44.5123 8.91814 42.5929 7.57698C41.2056 6.58435 39.7211 5.73519 38.1621 5.04258C37.0677 4.56521 35.903 4.26902 34.7135 4.16563L34.5469 4.14151C34.6105 4.06478 34.6521 4.00997 34.7003 3.95954C35.0555 3.60218 35.4151 3.2514 35.768 2.88966C36.1321 2.52258 36.6217 2.30714 37.1383 2.28675C37.9294 2.25897 38.7185 2.38403 39.4622 2.65507C40.8914 3.1399 42.2557 3.79815 43.5247 4.61507C45.8821 6.10553 48.0757 7.84054 50.069 9.7913C50.1041 9.8176 50.1282 9.84611 50.183 9.90749Z" fill="#EC622C"/>
<path d="M34.4037 5.22451C34.59 6.21674 34.8841 7.18567 35.2807 8.11408C35.8129 9.3147 36.4466 10.4677 37.1749 11.5605C38.576 13.699 40.1755 15.7007 41.9521 17.5392L42.5177 18.1333L40.0886 20.0188C40.0294 19.9705 39.9855 19.9398 39.9483 19.9026C38.0043 17.9134 36.2751 15.725 34.7896 13.3736C33.9727 12.1046 33.3144 10.7403 32.8296 9.31113C32.5522 8.5387 32.4293 7.71931 32.4678 6.8995C32.4741 6.65866 32.5305 6.42177 32.6335 6.20397C32.7365 5.98617 32.8838 5.79225 33.066 5.63462C33.2482 5.47698 33.4613 5.35908 33.6916 5.28847C33.9219 5.21785 34.1645 5.19607 34.4037 5.22451Z" fill="#EC622C"/>
<path d="M43.873 23.5178C44.693 22.8601 45.4954 22.2375 46.3198 21.5907C46.6925 21.8779 47.063 22.1717 47.4401 22.4677C49.0692 23.728 50.8287 24.8099 52.6886 25.6948C53.7008 26.1869 54.7767 26.5352 55.8851 26.7297C56.0364 27.5781 55.3787 28.4529 54.4864 28.6173C53.7752 28.7226 53.0494 28.6679 52.362 28.4573C50.9997 28.0711 49.6953 27.5041 48.4836 26.7713C46.8884 25.8425 45.372 24.7844 43.9498 23.6077C43.9223 23.5794 43.8967 23.5494 43.873 23.5178Z" fill="#EC622C"/>
<path d="M33.6763 13.5359L35.4675 16.2084C33.9789 18.4468 32.5955 20.7357 32.111 23.4433C31.7087 23.4913 31.3024 23.394 30.9655 23.1689C30.6286 22.9437 30.3833 22.6056 30.2738 22.2156C30.1197 21.5654 30.131 20.887 30.3066 20.2424C30.5996 18.9609 31.0876 17.732 31.7536 16.5987C32.3171 15.6033 32.955 14.6518 33.5623 13.6784C33.5976 13.6288 33.6357 13.5812 33.6763 13.5359Z" fill="#EC622C"/>
<path d="M38.7138 12.0713L37.0234 9.40096L39.5666 6.85779L42.2435 8.55031L38.7138 12.0713Z" fill="#EC622C"/>
<path d="M8.80682 42.7757L2.24501 35.1067H0V46.1147H2.20116V38.4457L8.76955 46.1147H11.008V35.1067H8.80682V42.7757Z" fill="#EC622C"/>
<path d="M21.8044 42.1377C21.8044 43.3216 21.2147 43.9135 20.0352 43.9135H16.9658C15.7966 43.9135 15.2119 43.3238 15.2119 42.1443V35.1067H13.0195V42.4468C13.0195 44.8906 14.2429 46.1132 16.6896 46.1147H20.3355C22.7822 46.1147 24.0056 44.892 24.0056 42.4468V35.1067H21.8132L21.8044 42.1377Z" fill="#EC622C"/>
<path d="M25.998 38.7768V42.4469C25.998 44.8907 27.2214 46.1133 29.6681 46.1147H37.006V43.9224H29.975C28.7911 43.9224 28.1992 43.3326 28.1992 42.1531V39.0838C28.1992 37.9145 28.789 37.3298 29.9685 37.3298H37.006V35.1375H29.6681C27.2214 35.117 25.998 36.3301 25.998 38.7768Z" fill="#EC622C"/>
<path d="M41.1973 35.1067H38.9961V46.1147H50.0041V43.9135H41.1973V35.1067Z" fill="#EC622C"/>
<path d="M73.8005 42.1377C73.8005 43.3216 73.2108 43.9135 72.0313 43.9135H68.9619C67.7926 43.9135 67.208 43.3238 67.208 42.1443V35.1067H65.0156V42.4468C65.0156 44.8906 66.239 46.1132 68.6857 46.1147H72.3535C74.8003 46.1147 76.0236 44.892 76.0236 42.4468V35.1067H73.8312L73.8005 42.1377Z" fill="#EC622C"/>
<path d="M82.0284 37.3079H89.0111V35.1155H81.6622C79.2155 35.1155 77.9922 36.2168 77.9922 38.4194C77.9922 40.622 79.2155 41.7226 81.6622 41.7211H84.964C86.1873 41.7211 86.799 42.0865 86.799 42.8173C86.799 43.5481 86.1873 43.9135 84.964 43.9135H77.9922V46.1059H85.3301C87.7768 46.1059 89.0002 45.0053 89.0002 42.8042C89.0002 40.603 87.7768 39.5024 85.3301 39.5024H82.0284C80.805 39.5024 80.1933 39.137 80.1933 38.4063C80.1933 37.6755 80.805 37.3093 82.0284 37.3079Z" fill="#EC622C"/>
<path d="M51.9941 35.1067V37.31V39.5112V41.7124V43.9135V46.1147H54.4321H63.0021V43.9135H54.4321V41.7124H63.0021V39.5112H54.4321V37.31H63.0021V35.1067H54.4321H51.9941Z" fill="#EC622C"/>
</svg>
